<svg xmlns="http://www.w3.org/2000/svg" width="63" height="43" viewBox="0 0 63 43"><path d="M2.66 23.88c.18 1.25 1.38 2.05 3.08 2.05 1.61 0 2.8-.87 2.8-2.06 0-1.02-.75-1.67-2.4-2.08l-1.54-.4c-2.17-.55-3.11-1.53-3.11-3.23 0-2.03 1.7-3.41 4.23-3.41 2.32 0 4.04 1.38 4.17 3.31h-1.5c-.21-1.23-1.22-1.96-2.71-1.96-1.59 0-2.65.8-2.65 2.01 0 .94.66 1.48 2.31 1.9l1.25.33c2.48.62 3.48 1.59 3.48 3.35 0 2.2-1.74 3.6-4.47 3.6-2.54 0-4.29-1.34-4.45-3.41h1.51zm8.97-1.34c0-2.88 1.58-4.63 4.12-4.63 2.55 0 4.13 1.75 4.13 4.63 0 2.87-1.58 4.63-4.13 4.63-2.54 0-4.12-1.76-4.12-4.63zm6.77 0c0-2.12-.96-3.35-2.65-3.35s-2.65 1.22-2.65 3.35c0 2.12.95 3.35 2.65 3.35s2.65-1.23 2.65-3.35zm11.55 0c0 2.8-1.49 4.63-3.76 4.63-1.28 0-2.31-.56-2.8-1.5h-.13V30h-1.43V18.07h1.36v1.49h.13c.57-1.03 1.64-1.65 2.86-1.65 2.29 0 3.77 1.82 3.77 4.63zm-1.48 0c0-2.09-.98-3.35-2.62-3.35-1.62 0-2.64 1.29-2.64 3.35 0 2.05 1.02 3.35 2.63 3.35 1.66-.01 2.63-1.26 2.63-3.35zm2.99 0c0-2.88 1.58-4.63 4.13-4.63s4.12 1.75 4.12 4.63c0 2.87-1.58 4.63-4.12 4.63-2.56 0-4.13-1.76-4.13-4.63zm6.77 0c0-2.12-.95-3.35-2.65-3.35s-2.65 1.22-2.65 3.35c0 2.12.96 3.35 2.65 3.35s2.65-1.23 2.65-3.35zm3.43-4.47h1.36v1.33h.13c.27-.87 1.29-1.49 2.48-1.49.23 0 .53.02.71.04v1.43a6.24 6.24 0 0 0-.91-.08c-1.36 0-2.35.91-2.35 2.17v5.54h-1.43l.01-8.94zm8.71-2.32v2.32h1.99v1.2h-1.99v5.06c0 1.05.4 1.5 1.33 1.5.26 0 .4-.01.66-.03V27c-.28.05-.56.08-.84.08-1.84 0-2.58-.68-2.58-2.39v-5.43H47.5v-1.2h1.44v-2.32h1.43v.01zm11.09 8.95c-.43 1.54-1.81 2.47-3.77 2.47-2.48 0-4.03-1.79-4.03-4.62 0-2.81 1.58-4.64 4.03-4.64 2.42 0 3.88 1.72 3.88 4.5v.55h-6.43v.07c.07 1.77 1.06 2.89 2.58 2.89 1.15 0 1.93-.42 2.31-1.21h1.43v-.01zm-6.32-2.9h4.93c-.03-1.59-.98-2.63-2.4-2.63s-2.42 1.05-2.53 2.63z" fill="#fff"/><path fill="none" d="M0 .01h63V43H0z"/></svg>