<svg xmlns="http://www.w3.org/2000/svg" xmlns:xlink="http://www.w3.org/1999/xlink" id="Localized_Text" width="54" height="44" x="0" y="0" enable-background="new 0 0 54 44" version="1.1" viewBox="0 0 54 44" xml:space="preserve"><path fill="#FFF" d="M3.09,24.42c0.15,1.03,1.13,1.69,2.54,1.69c1.33,0,2.3-0.72,2.3-1.7c0-0.84-0.62-1.37-1.98-1.72	l-1.26-0.33c-1.78-0.45-2.56-1.26-2.56-2.66c0-1.67,1.4-2.81,3.49-2.81c1.91,0,3.33,1.13,3.43,2.73H7.81	c-0.17-1.01-1-1.61-2.24-1.61c-1.31,0-2.18,0.66-2.18,1.65c0,0.77,0.54,1.22,1.9,1.57l1.03,0.27c2.04,0.51,2.86,1.31,2.86,2.75	c0,1.81-1.43,2.97-3.68,2.97c-2.09,0-3.53-1.11-3.66-2.81H3.09z M10.58,23.32c0-2.37,1.3-3.81,3.4-3.81c2.1,0,3.4,1.44,3.4,3.81	c0,2.37-1.3,3.81-3.4,3.81C11.88,27.13,10.58,25.68,10.58,23.32z M16.16,23.32c0-1.75-0.79-2.75-2.18-2.75s-2.18,1-2.18,2.75	c0,1.74,0.79,2.75,2.18,2.75S16.16,25.06,16.16,23.32z M25.77,23.32c0,2.3-1.22,3.81-3.1,3.81c-1.05,0-1.9-0.46-2.3-1.24h-0.11v3.57	h-1.18v-9.83h1.12v1.23h0.11c0.47-0.85,1.35-1.36,2.36-1.36C24.55,19.5,25.77,21,25.77,23.32z M24.55,23.32	c0-1.72-0.81-2.75-2.15-2.75c-1.33,0-2.17,1.06-2.17,2.75c0,1.69,0.84,2.75,2.17,2.75C23.74,26.07,24.55,25.04,24.55,23.32z M27.1,23.32c0-2.37,1.3-3.81,3.4-3.81s3.4,1.44,3.4,3.81c0,2.37-1.3,3.81-3.4,3.81S27.1,25.68,27.1,23.32z M32.68,23.32	c0-1.75-0.79-2.75-2.18-2.75s-2.18,1-2.18,2.75c0,1.74,0.79,2.75,2.18,2.75S32.68,25.06,32.68,23.32z M35.6,19.63h1.12v1.09h0.11	c0.22-0.72,1.07-1.22,2.04-1.22c0.19,0,0.44,0.01,0.59,0.03v1.18c-0.1-0.03-0.52-0.07-0.75-0.07c-1.12,0-1.93,0.75-1.93,1.79V27	H35.6V19.63z M42.87,17.72v1.91h1.64v0.98h-1.64v4.17c0,0.87,0.33,1.24,1.09,1.24c0.21,0,0.33-0.01,0.55-0.03v0.99	c-0.23,0.04-0.46,0.07-0.69,0.07c-1.52,0-2.13-0.56-2.13-1.97v-4.47h-1.19v-0.98h1.19v-1.91H42.87z M52.11,25.09	c-0.36,1.26-1.49,2.04-3.1,2.04c-2.04,0-3.32-1.48-3.32-3.81c0-2.32,1.3-3.82,3.32-3.82c1.99,0,3.2,1.42,3.2,3.71v0.45h-5.3v0.05	c0.06,1.46,0.88,2.38,2.13,2.38c0.95,0,1.59-0.35,1.9-1H52.11z M46.9,22.71h4.06c-0.03-1.31-0.81-2.17-1.98-2.17	C47.81,20.54,46.99,21.4,46.9,22.71z"/></svg>
