<svg xmlns="http://www.w3.org/2000/svg" xmlns:xlink="http://www.w3.org/1999/xlink" width="74" height="74" x="0" y="0" enable-background="new 0 0 74 74" version="1.1" viewBox="0 0 74 74" xml:space="preserve"><path fill="#888" d="M37,58.5c-11.85,0-21.5-9.64-21.5-21.5c0-11.85,9.65-21.5,21.5-21.5c11.86,0,21.5,9.65,21.5,21.5C58.5,48.86,48.86,58.5,37,58.5z M37,17.5c-10.75,0-19.5,8.75-19.5,19.5c0,10.75,8.75,19.5,19.5,19.5c10.75,0,19.5-8.75,19.5-19.5C56.5,26.25,47.75,17.5,37,17.5z M45,43H29v-2h16V43z M48.93,34H25v-2h23.93V34z"/></svg>