<svg xmlns="http://www.w3.org/2000/svg" width="86.54" height="42" viewBox="0 0 86.54 42"><path d="M12.17 21.01c0 3.83-2.06 6.28-5.48 6.28-3.44 0-5.5-2.44-5.5-6.28 0-3.85 2.12-6.27 5.5-6.27 3.4 0 5.48 2.42 5.48 6.27zm-9.45 0c0 2.97 1.48 4.9 3.97 4.9 2.46 0 3.94-1.93 3.94-4.9 0-3-1.49-4.89-3.94-4.89-2.44 0-3.97 1.89-3.97 4.89zM21.51 27h-1.36v-1.4h-.13c-.45 1-1.4 1.56-2.77 1.56-2.01 0-3.05-1.2-3.05-3.31v-5.79h1.43v5.45c0 1.61.6 2.36 2.03 2.36 1.58 0 2.44-.94 2.44-2.51v-5.3h1.43V27zm-4.26-10.48l-2.31-2.81h1.83l2.09 2.81h-1.61zm10.6 7.97c0-1.6 1.18-2.52 3.26-2.65l2.58-.16v-.81c0-1.1-.69-1.71-2.03-1.71-1.07 0-1.82.41-2.02 1.11H28.2c.19-1.44 1.6-2.38 3.51-2.38 2.18 0 3.4 1.12 3.4 2.98V27h-1.36v-1.32h-.13c-.58.95-1.56 1.48-2.76 1.48-1.72 0-3.01-1.03-3.01-2.67zm5.85-.83v-.82l-2.41.16c-1.36.09-1.96.56-1.96 1.46 0 .91.77 1.44 1.81 1.44 1.47 0 2.56-.96 2.56-2.24zm9.72-2.87c-.23-.89-1.02-1.61-2.31-1.61-1.61 0-2.62 1.29-2.62 3.31 0 2.07 1.03 3.38 2.62 3.38 1.2 0 2.04-.56 2.31-1.57h1.44c-.26 1.64-1.59 2.86-3.74 2.86-2.51 0-4.11-1.82-4.11-4.67 0-2.79 1.59-4.6 4.1-4.6 2.17 0 3.5 1.3 3.75 2.9h-1.44zm3.33-6.29h1.43v4.96h.13c.45-.99 1.39-1.57 2.76-1.57 1.89 0 3.09 1.21 3.09 3.31V27h-1.43v-5.44c0-1.59-.71-2.37-2.07-2.37-1.6 0-2.48 1.01-2.48 2.52V27h-1.43V14.5zm17.06 10.18c-.43 1.54-1.81 2.47-3.77 2.47-2.48 0-4.03-1.79-4.03-4.62 0-2.81 1.58-4.64 4.03-4.64 2.42 0 3.88 1.72 3.88 4.5v.55h-6.43v.07c.08 1.77 1.06 2.89 2.58 2.89 1.15 0 1.93-.42 2.31-1.21h1.43zm-6.32-2.89h4.93c-.03-1.59-.98-2.63-2.4-2.63-1.43 0-2.42 1.04-2.53 2.63zm10.39-6.05v2.32h1.99v1.2h-1.99v5.06c0 1.05.4 1.5 1.33 1.5.26 0 .4-.01.66-.03v1.2c-.28.05-.56.08-.84.08-1.84 0-2.58-.68-2.58-2.39v-5.43h-1.44v-1.2h1.44v-2.32h1.43zm11.08 8.94c-.43 1.54-1.81 2.47-3.77 2.47-2.48 0-4.03-1.79-4.03-4.62 0-2.81 1.58-4.64 4.03-4.64 2.42 0 3.88 1.72 3.88 4.5v.55h-6.43v.07c.07 1.77 1.06 2.89 2.58 2.89 1.15 0 1.93-.42 2.31-1.21h1.43zm-6.32-2.89h4.93c-.03-1.59-.98-2.63-2.4-2.63s-2.42 1.04-2.53 2.63zm8.37-3.74h1.36v1.33h.13c.27-.87 1.29-1.49 2.48-1.49.23 0 .53.02.71.04v1.43a6.24 6.24 0 0 0-.91-.08c-1.36 0-2.35.91-2.35 2.17V27H81v-8.95z" fill="#fff"/><path fill="none" d="M0 0h86.54v42H0z"/></svg>