<svg xmlns="http://www.w3.org/2000/svg" xmlns:xlink="http://www.w3.org/1999/xlink" id="Layer_1" width="33" height="54" x="0" y="0" enable-background="new 0 0 33 54" version="1.1" viewBox="0 0 33 54" xml:space="preserve"><style type="text/css">.st0{fill:#efefef}</style><g id="Dark"><path id="Accessories_1_" d="M6,50.5L6,50.5c-1.7,0-3-1.3-3-3v-8c0-1.7,1.3-3,3-3l0,0c1.7,0,3,1.3,3,3v8 C9,49.2,7.7,50.5,6,50.5z M30,47.5v-8c0-1.7-1.4-3-3-3l0,0c-1.6,0-3,1.3-3,3v8c0,1.7,1.4,3,3,3l0,0C28.6,50.5,30,49.2,30,47.5z M32.5,38c0-9.2-7.3-17.2-16-17.2s-16,8.1-16,17.2v10H2V38c0-8.4,6.6-15.8,14.5-15.8S31,29.6,31,38v10h1.5V38z" class="st0"/></g></svg>