<svg xmlns="http://www.w3.org/2000/svg" xmlns:xlink="http://www.w3.org/1999/xlink" width="23" height="54" x="0" y="0" enable-background="new 0 0 23 54" version="1.1" viewBox="0 0 23 54" xml:space="preserve"><g id="Dark"><path id="iPod_1_" fill="#EFEFEF" d="M21.52,36H9.48C8.66,36,8,36.67,8,37.48v12.04C8,50.33,8.66,51,9.48,51h11.85 c0.81,0,1.67-0.66,1.67-1.48V37.48C23,36.67,22.34,36,21.52,36z M15.4,48.98c-2.97,0-5.38-2.41-5.38-5.38 c0-2.97,2.41-5.38,5.38-5.38s5.38,2.41,5.38,5.38C20.79,46.57,18.38,48.98,15.4,48.98z M15.4,40.9c1.49,0,2.69,1.21,2.69,2.69 c0,1.49-1.21,2.69-2.69,2.69s-2.69-1.21-2.69-2.69C12.71,42.11,13.92,40.9,15.4,40.9z M7.5,51H7c-1.35,0-1.35,0-1.35,0H1.35 C0.6,51,0,50.4,0,49.65V17.35C0,16.6,0.6,16,1.35,16h13.31C15.4,16,16,16.6,16,17.35V35h-1V17H1v26h6v6.52 C7,50.08,7.19,50.59,7.5,51z"/></g></svg>
