<svg xmlns="http://www.w3.org/2000/svg" xmlns:xlink="http://www.w3.org/1999/xlink" id="Layer_1" width="72.28" height="44" x="0" y="0" enable-background="new 0 0 72.28 44" version="1.1" viewBox="0 0 72.28 44" xml:space="preserve"><g><g><rect width="72.28" height="44" fill="none"/></g><g><path fill="#FFF" d="M9.86,22.06c0,3.15-1.7,5.17-4.51,5.17c-2.83,0-4.53-2.01-4.53-5.17c0-3.17,1.74-5.16,4.53-5.16 C8.15,16.9,9.86,18.9,9.86,22.06z M2.08,22.06c0,2.45,1.22,4.03,3.27,4.03c2.02,0,3.25-1.59,3.25-4.03c0-2.47-1.23-4.03-3.25-4.03 C3.34,18.04,2.08,19.6,2.08,22.06z"/><path fill="#FFF" d="M17.67,27h-1.12v-1.15h-0.11c-0.37,0.82-1.16,1.29-2.28,1.29c-1.65,0-2.52-0.98-2.52-2.73v-4.77 h1.18v4.48c0,1.33,0.49,1.94,1.67,1.94c1.3,0,2.01-0.77,2.01-2.06v-4.36h1.18V27z M14.16,18.36l-1.9-2.31h1.5l1.72,2.31H14.16z"/><path fill="#FFF" d="M23.11,24.93c0-1.32,0.97-2.08,2.69-2.18l2.13-0.13v-0.67c0-0.91-0.57-1.41-1.67-1.41 c-0.88,0-1.5,0.33-1.66,0.92h-1.19c0.16-1.18,1.32-1.96,2.89-1.96c1.8,0,2.8,0.92,2.8,2.45V27h-1.12v-1.09h-0.11 c-0.48,0.79-1.29,1.22-2.27,1.22C24.17,27.13,23.11,26.28,23.11,24.93z M27.93,24.25v-0.68l-1.98,0.13 c-1.12,0.08-1.61,0.46-1.61,1.2c0,0.75,0.64,1.19,1.49,1.19C27.03,26.1,27.93,25.3,27.93,24.25z"/><path fill="#FFF" d="M36.04,21.89c-0.19-0.73-0.84-1.33-1.9-1.33c-1.33,0-2.16,1.06-2.16,2.73 c0,1.7,0.85,2.78,2.16,2.78c0.99,0,1.68-0.46,1.9-1.29h1.19c-0.21,1.35-1.31,2.35-3.08,2.35c-2.06,0-3.38-1.5-3.38-3.84 c0-2.3,1.31-3.79,3.38-3.79c1.79,0,2.88,1.07,3.09,2.39H36.04z"/><path fill="#FFF" d="M38.9,16.7h1.18v4.09h0.11c0.37-0.81,1.14-1.29,2.27-1.29c1.56,0,2.54,1,2.54,2.73V27h-1.18v-4.48 c0-1.31-0.59-1.95-1.7-1.95c-1.32,0-2.04,0.83-2.04,2.08V27H38.9V16.7z"/><path fill="#FFF" d="M53.06,25.09c-0.36,1.26-1.49,2.04-3.1,2.04c-2.04,0-3.32-1.48-3.32-3.81 c0-2.32,1.3-3.82,3.32-3.82c1.99,0,3.2,1.42,3.2,3.71v0.45h-5.3v0.05c0.06,1.46,0.88,2.38,2.13,2.38c0.95,0,1.59-0.35,1.9-1H53.06 z M47.86,22.71h4.06c-0.03-1.31-0.81-2.17-1.98-2.17C48.77,20.54,47.95,21.4,47.86,22.71z"/><path fill="#FFF" d="M56.53,17.72v1.91h1.64v0.98h-1.64v4.17c0,0.87,0.33,1.24,1.09,1.24c0.21,0,0.33-0.01,0.55-0.03 v0.99c-0.23,0.04-0.46,0.07-0.69,0.07c-1.52,0-2.13-0.56-2.13-1.97v-4.47h-1.19v-0.98h1.19v-1.91H56.53z"/><path fill="#FFF" d="M65.76,25.09c-0.36,1.26-1.49,2.04-3.1,2.04c-2.04,0-3.32-1.48-3.32-3.81 c0-2.32,1.3-3.82,3.32-3.82c1.99,0,3.2,1.42,3.2,3.71v0.45h-5.3v0.05c0.06,1.46,0.88,2.38,2.13,2.38c0.95,0,1.59-0.35,1.9-1H65.76 z M60.56,22.71h4.06c-0.03-1.31-0.81-2.17-1.98-2.17C61.47,20.54,60.65,21.4,60.56,22.71z"/><path fill="#FFF" d="M67.56,19.63h1.12v1.09h0.11c0.22-0.72,1.07-1.22,2.04-1.22c0.19,0,0.44,0.01,0.59,0.03v1.18 c-0.1-0.03-0.52-0.07-0.75-0.07c-1.12,0-1.93,0.75-1.93,1.79V27h-1.18V19.63z"/></g></g></svg>
