<?xml version="1.0" encoding="utf-8"?>
<!-- Generator: Adobe Illustrator 16.0.4, SVG Export Plug-In . SVG Version: 6.00 Build 0)  -->
<!DOCTYPE svg PUBLIC "-//W3C//DTD SVG 1.1//EN" "http://www.w3.org/Graphics/SVG/1.1/DTD/svg11.dtd">
<svg version="1.1" id="Layer_1" xmlns="http://www.w3.org/2000/svg" xmlns:xlink="http://www.w3.org/1999/xlink" x="0px" y="0px"
	 width="105.29px" height="42px" viewBox="0 0 105.29 42" style="enable-background:new 0 0 105.29 42;" xml:space="preserve">
<g>
	<g>
		<path style="fill:#FFFFFF;" d="M5.55,27H4.13L0.87,15.02h1.56l2.38,9.74h0.1l2.68-9.74h1.51l2.68,9.74h0.1l2.38-9.74h1.56
			L12.57,27h-1.41L8.4,17.55H8.3L5.55,27z"/>
		<path style="fill:#FFFFFF;" d="M17.7,14.5h1.43v4.96h0.13c0.45-0.99,1.39-1.57,2.76-1.57c1.89,0,3.09,1.21,3.09,3.31V27h-1.43
			v-5.44c0-1.59-0.71-2.37-2.07-2.37c-1.6,0-2.48,1.01-2.48,2.52V27H17.7V14.5z"/>
		<path style="fill:#FFFFFF;" d="M34.76,24.68c-0.43,1.54-1.81,2.47-3.77,2.47c-2.48,0-4.03-1.79-4.03-4.62
			c0-2.81,1.58-4.64,4.03-4.64c2.42,0,3.88,1.72,3.88,4.5v0.55h-6.43v0.07c0.08,1.77,1.06,2.89,2.58,2.89
			c1.15,0,1.93-0.42,2.31-1.21H34.76z M28.44,21.79h4.93c-0.03-1.59-0.98-2.63-2.4-2.63C29.54,19.16,28.55,20.2,28.44,21.79z"/>
		<path style="fill:#FFFFFF;" d="M36.81,18.05h1.36v1.33h0.13c0.27-0.87,1.29-1.49,2.48-1.49c0.23,0,0.53,0.02,0.71,0.04v1.43
			c-0.12-0.03-0.63-0.08-0.91-0.08c-1.36,0-2.35,0.91-2.35,2.17V27h-1.43V18.05z"/>
		<path style="fill:#FFFFFF;" d="M50.08,24.68c-0.43,1.54-1.81,2.47-3.77,2.47c-2.48,0-4.03-1.79-4.03-4.62
			c0-2.81,1.58-4.64,4.03-4.64c2.42,0,3.88,1.72,3.88,4.5v0.55h-6.43v0.07c0.08,1.77,1.06,2.89,2.58,2.89
			c1.15,0,1.93-0.42,2.31-1.21H50.08z M43.77,21.79h4.93c-0.03-1.59-0.98-2.63-2.4-2.63C44.87,19.16,43.88,20.2,43.77,21.79z"/>
		<path style="fill:#FFFFFF;" d="M58.65,15.74v2.32h1.99v1.2h-1.99v5.06c0,1.05,0.4,1.5,1.33,1.5c0.26,0,0.4-0.01,0.66-0.03v1.2
			c-0.28,0.05-0.56,0.08-0.84,0.08c-1.84,0-2.58-0.68-2.58-2.39v-5.43h-1.44v-1.2h1.44v-2.32H58.65z"/>
		<path style="fill:#FFFFFF;" d="M61.92,22.53c0-2.88,1.58-4.63,4.13-4.63c2.55,0,4.12,1.75,4.12,4.63c0,2.87-1.58,4.63-4.12,4.63
			C63.5,27.16,61.92,25.4,61.92,22.53z M68.7,22.53c0-2.12-0.95-3.35-2.65-3.35s-2.65,1.22-2.65,3.35c0,2.12,0.96,3.34,2.65,3.34
			S68.7,24.64,68.7,22.53z"/>
		<path style="fill:#FFFFFF;" d="M76.78,27V15.02h4.58c2.2,0,3.54,1.15,3.54,2.99c0,1.25-0.91,2.37-2.07,2.58v0.13
			c1.64,0.21,2.67,1.33,2.67,2.91c0,2.11-1.51,3.36-4.06,3.36H76.78z M78.28,20.19h2.39c1.81,0,2.73-0.65,2.73-1.92
			c0-1.22-0.86-1.93-2.35-1.93h-2.77V20.19z M81.23,25.68c1.8,0,2.75-0.73,2.75-2.12c0-1.39-0.98-2.09-2.89-2.09h-2.81v4.21H81.23z"
			/>
		<path style="fill:#FFFFFF;" d="M94.71,27h-1.36v-1.4h-0.13c-0.45,1-1.4,1.56-2.77,1.56c-2.01,0-3.05-1.2-3.05-3.31v-5.79h1.43
			v5.45c0,1.61,0.6,2.36,2.03,2.36c1.58,0,2.44-0.94,2.44-2.51v-5.3h1.43V27z"/>
		<path style="fill:#FFFFFF;" d="M97.22,30.19v-1.22c0.17,0.03,0.4,0.04,0.6,0.04c0.82,0,1.27-0.39,1.64-1.47l0.17-0.53l-3.31-8.96
			h1.54l2.46,7.36h0.13l2.45-7.36h1.52l-3.5,9.5c-0.76,2.07-1.48,2.69-3.06,2.69C97.66,30.24,97.42,30.22,97.22,30.19z"/>
	</g>
	<g>
		<rect style="fill:none;" width="105.29" height="42"/>
	</g>
</g>
</svg>
