<svg xmlns="http://www.w3.org/2000/svg" width="84" height="43" viewBox="0 0 84 43"><path d="M8.24 23.57H3.47L2.27 27H.7l4.42-11.98H6.6L11.01 27H9.44l-1.2-3.43zM3.91 22.3h3.88l-1.88-5.35h-.12L3.91 22.3zm11.67-4.41c1.88 0 3.18.93 3.37 2.4h-1.41c-.19-.71-.89-1.19-1.97-1.19-1.06 0-1.89.54-1.89 1.34 0 .61.5 1 1.55 1.25l1.38.33c1.68.41 2.5 1.14 2.5 2.42 0 1.6-1.55 2.71-3.59 2.71-1.99 0-3.36-.96-3.52-2.44h1.47c.24.75.96 1.24 2.1 1.24 1.2 0 2.07-.57 2.07-1.39 0-.62-.46-1.03-1.42-1.26l-1.54-.37c-1.68-.41-2.44-1.13-2.44-2.42.01-1.49 1.44-2.62 3.34-2.62zm8.43 0c1.88 0 3.18.93 3.37 2.4h-1.41c-.19-.71-.89-1.19-1.97-1.19-1.06 0-1.89.54-1.89 1.34 0 .61.5 1 1.55 1.25l1.38.33c1.68.41 2.5 1.14 2.5 2.42 0 1.6-1.55 2.71-3.59 2.71-1.99 0-3.36-.96-3.52-2.44h1.47c.24.75.96 1.24 2.1 1.24 1.2 0 2.07-.57 2.07-1.39 0-.62-.46-1.03-1.42-1.26l-1.54-.37c-1.68-.41-2.44-1.13-2.44-2.42 0-1.49 1.44-2.62 3.34-2.62zm5.21-2.65c0-.55.45-1 1-1s1 .45 1 1-.45 1-1 1-1-.45-1-1zm.28 2.81h1.43V27H29.5v-8.95zm6.98-.16c1.88 0 3.18.93 3.37 2.4h-1.41c-.19-.71-.89-1.19-1.97-1.19-1.06 0-1.89.54-1.89 1.34 0 .61.5 1 1.55 1.25l1.38.33c1.68.41 2.5 1.14 2.5 2.42 0 1.6-1.55 2.71-3.59 2.71-1.99 0-3.36-.96-3.52-2.44h1.47c.24.75.96 1.24 2.1 1.24 1.2 0 2.07-.57 2.07-1.39 0-.62-.46-1.03-1.42-1.26l-1.54-.37c-1.68-.41-2.44-1.13-2.44-2.42 0-1.49 1.44-2.62 3.34-2.62zm7.4-2.15v2.32h1.99v1.2h-1.99v5.06c0 1.05.4 1.5 1.33 1.5.26 0 .4-.01.66-.03v1.2c-.28.05-.56.08-.84.08-1.84 0-2.58-.68-2.58-2.39v-5.43h-1.44v-1.2h1.44v-2.32h1.43v.01zm3.32 8.75c0-1.6 1.18-2.52 3.26-2.65l2.58-.16v-.81c0-1.1-.69-1.71-2.03-1.71-1.07 0-1.82.41-2.02 1.11h-1.45c.19-1.44 1.6-2.38 3.51-2.38 2.18 0 3.4 1.12 3.4 2.98V27h-1.36v-1.32h-.13c-.58.95-1.56 1.48-2.76 1.48-1.72 0-3-1.03-3-2.67zm5.84-.83v-.82l-2.41.16c-1.36.09-1.96.56-1.96 1.46 0 .91.77 1.44 1.81 1.44 1.47 0 2.56-.96 2.56-2.24zm3.76-5.61h1.36v1.41h.13c.45-.99 1.32-1.57 2.69-1.57 2.01 0 3.13 1.19 3.13 3.31V27h-1.43v-5.44c0-1.61-.68-2.37-2.11-2.37s-2.35.95-2.35 2.52V27H56.8v-8.95zm15.58 2.74c-.23-.89-1.02-1.61-2.31-1.61-1.61 0-2.62 1.29-2.62 3.31 0 2.07 1.03 3.38 2.62 3.38 1.2 0 2.04-.56 2.31-1.57h1.44c-.26 1.64-1.59 2.86-3.74 2.86-2.51 0-4.11-1.82-4.11-4.67 0-2.79 1.59-4.6 4.1-4.6 2.17 0 3.5 1.3 3.75 2.9h-1.44zm10.6 3.89c-.43 1.54-1.81 2.47-3.77 2.47-2.48 0-4.03-1.79-4.03-4.62 0-2.81 1.58-4.64 4.03-4.64 2.42 0 3.88 1.72 3.88 4.5v.55h-6.43v.07c.08 1.77 1.06 2.89 2.58 2.89 1.15 0 1.93-.42 2.31-1.21l1.43-.01zm-6.32-2.89h4.93c-.03-1.59-.98-2.63-2.4-2.63-1.43 0-2.42 1.04-2.53 2.63z" fill="#fff"/><path fill="none" d="M0 0h84v43H0z"/></svg>