<svg xmlns="http://www.w3.org/2000/svg" xmlns:xlink="http://www.w3.org/1999/xlink" id="Layer_1" width="70.05" height="44" x="0" y="0" enable-background="new 0 0 70.05 44" version="1.1" viewBox="0 0 70.05 44" xml:space="preserve"><g><g><rect width="70.05" height="44" fill="none"/></g><g><path fill="#FFF" d="M6.62,24.18H2.7L1.71,27H0.42l3.64-9.86h1.22L8.91,27H7.61L6.62,24.18z M3.06,23.13h3.2l-1.54-4.4 H4.61L3.06,23.13z"/><path fill="#FFF" d="M12.79,19.5c1.54,0,2.62,0.77,2.78,1.98H14.4c-0.16-0.59-0.73-0.98-1.62-0.98 c-0.88,0-1.56,0.44-1.56,1.1c0,0.51,0.41,0.82,1.28,1.03l1.13,0.27c1.39,0.33,2.06,0.94,2.06,2c0,1.32-1.28,2.23-2.95,2.23 c-1.64,0-2.77-0.79-2.9-2.01h1.21c0.2,0.62,0.79,1.02,1.73,1.02c0.99,0,1.7-0.47,1.7-1.15c0-0.51-0.38-0.85-1.17-1.04l-1.26-0.31 c-1.38-0.34-2.01-0.93-2.01-2C10.04,20.42,11.22,19.5,12.79,19.5z"/><path fill="#FFF" d="M19.84,19.5c1.54,0,2.62,0.77,2.78,1.98h-1.16c-0.16-0.59-0.73-0.98-1.62-0.98 c-0.88,0-1.56,0.44-1.56,1.1c0,0.51,0.41,0.82,1.28,1.03l1.13,0.27c1.39,0.33,2.06,0.94,2.06,2c0,1.32-1.28,2.23-2.95,2.23 c-1.64,0-2.77-0.79-2.9-2.01h1.21c0.2,0.62,0.79,1.02,1.73,1.02c0.99,0,1.7-0.47,1.7-1.15c0-0.51-0.38-0.85-1.17-1.04l-1.26-0.31 c-1.38-0.34-2.01-0.93-2.01-2C17.09,20.42,18.27,19.5,19.84,19.5z"/><path fill="#FFF" d="M24.24,17.31c0-0.45,0.37-0.82,0.82-0.82s0.82,0.37,0.82,0.82s-0.37,0.82-0.82,0.82 S24.24,17.76,24.24,17.31z M24.47,19.63h1.18V27h-1.18V19.63z"/><path fill="#FFF" d="M30.33,19.5c1.54,0,2.62,0.77,2.78,1.98h-1.16c-0.16-0.59-0.73-0.98-1.62-0.98 c-0.88,0-1.56,0.44-1.56,1.1c0,0.51,0.41,0.82,1.28,1.03l1.13,0.27c1.39,0.33,2.06,0.94,2.06,2c0,1.32-1.28,2.23-2.95,2.23 c-1.64,0-2.77-0.79-2.9-2.01h1.21c0.2,0.62,0.79,1.02,1.73,1.02c0.99,0,1.7-0.47,1.7-1.15c0-0.51-0.38-0.85-1.17-1.04l-1.26-0.31 c-1.38-0.34-2.01-0.93-2.01-2C27.58,20.42,28.76,19.5,30.33,19.5z"/><path fill="#FFF" d="M36.54,17.72v1.91h1.64v0.98h-1.64v4.17c0,0.87,0.33,1.24,1.09,1.24c0.21,0,0.33-0.01,0.55-0.03 v0.99c-0.23,0.04-0.46,0.07-0.69,0.07c-1.52,0-2.13-0.56-2.13-1.97v-4.47h-1.19v-0.98h1.19v-1.91H36.54z"/><path fill="#FFF" d="M39.38,24.93c0-1.32,0.97-2.08,2.69-2.18l2.13-0.13v-0.67c0-0.91-0.57-1.41-1.67-1.41 c-0.88,0-1.5,0.33-1.66,0.92h-1.19c0.16-1.18,1.32-1.96,2.89-1.96c1.8,0,2.8,0.92,2.8,2.45V27h-1.12v-1.09h-0.11 c-0.48,0.79-1.29,1.22-2.27,1.22C40.44,27.13,39.38,26.28,39.38,24.93z M44.19,24.25v-0.68l-1.98,0.13 c-1.12,0.08-1.61,0.46-1.61,1.2c0,0.75,0.64,1.19,1.49,1.19C43.3,26.1,44.19,25.3,44.19,24.25z"/><path fill="#FFF" d="M47.4,19.63h1.12v1.16h0.11c0.37-0.81,1.09-1.29,2.21-1.29c1.65,0,2.58,0.98,2.58,2.73V27h-1.18 v-4.48c0-1.33-0.56-1.95-1.74-1.95s-1.93,0.79-1.93,2.08V27H47.4V19.63z"/><path fill="#FFF" d="M60.34,21.89c-0.19-0.73-0.84-1.33-1.9-1.33c-1.33,0-2.16,1.06-2.16,2.73 c0,1.7,0.85,2.78,2.16,2.78c0.99,0,1.68-0.46,1.9-1.29h1.19c-0.21,1.35-1.31,2.35-3.08,2.35c-2.06,0-3.38-1.5-3.38-3.84 c0-2.3,1.31-3.79,3.38-3.79c1.79,0,2.88,1.07,3.09,2.39H60.34z"/><path fill="#FFF" d="M69.18,25.09c-0.36,1.26-1.49,2.04-3.1,2.04c-2.04,0-3.32-1.48-3.32-3.81 c0-2.32,1.3-3.82,3.32-3.82c1.99,0,3.2,1.42,3.2,3.71v0.45h-5.3v0.05c0.06,1.46,0.88,2.38,2.13,2.38c0.95,0,1.59-0.35,1.9-1H69.18 z M63.98,22.71h4.06c-0.03-1.31-0.81-2.17-1.98-2.17C64.89,20.54,64.07,21.4,63.98,22.71z"/></g></g></svg>
