<svg xmlns="http://www.w3.org/2000/svg" xmlns:xlink="http://www.w3.org/1999/xlink" id="Localized_Text" width="101" height="44" x="0" y="0" enable-background="new 0 0 101 44" version="1.1" viewBox="0 0 101 44" xml:space="preserve"><path fill="#FFF" d="M4.3,17.14c2.93,0,4.66,1.83,4.66,4.93C8.96,25.17,7.23,27,4.3,27H0.92v-9.86H4.3z M2.15,25.89h2.07	c2.2,0,3.48-1.41,3.48-3.81c0-2.41-1.29-3.83-3.48-3.83H2.15V25.89z M10.42,23.32c0-2.37,1.3-3.81,3.4-3.81c2.1,0,3.4,1.44,3.4,3.81	c0,2.37-1.3,3.81-3.4,3.81C11.72,27.13,10.42,25.68,10.42,23.32z M16,23.32c0-1.75-0.79-2.75-2.18-2.75s-2.18,1-2.18,2.75	c0,1.74,0.79,2.75,2.18,2.75S16,25.06,16,23.32z M13.04,18.37l1.72-2.31h1.5l-1.9,2.31H13.04z M18.92,19.63h1.12v1.16h0.11	c0.37-0.81,1.09-1.29,2.21-1.29c1.65,0,2.58,0.98,2.58,2.73V27h-1.18v-4.48c0-1.33-0.56-1.96-1.74-1.96s-1.93,0.79-1.93,2.08V27	h-1.18V19.63z M26.58,23.32c0-2.31,1.22-3.81,3.1-3.81c1.03,0,1.89,0.49,2.31,1.29h0.1v-4.09h1.18V27h-1.12v-1.18h-0.11	c-0.46,0.82-1.34,1.31-2.36,1.31C27.79,27.13,26.58,25.63,26.58,23.32z M27.8,23.32c0,1.72,0.81,2.75,2.15,2.75	c1.34,0,2.17-1.05,2.17-2.75c0-1.69-0.83-2.75-2.17-2.75C28.61,20.56,27.8,21.6,27.8,23.32z M41.47,25.09	c-0.36,1.26-1.49,2.04-3.1,2.04c-2.04,0-3.32-1.48-3.32-3.81c0-2.32,1.3-3.82,3.32-3.82c1.99,0,3.2,1.42,3.2,3.71v0.45h-5.3v0.05	c0.06,1.46,0.88,2.38,2.13,2.38c0.95,0,1.59-0.35,1.9-1H41.47z M36.27,22.71h4.06c-0.03-1.31-0.81-2.17-1.97-2.17	C37.18,20.54,36.36,21.4,36.27,22.71z M51.99,21.89c-0.19-0.73-0.84-1.33-1.9-1.33c-1.33,0-2.16,1.06-2.16,2.73	c0,1.7,0.85,2.78,2.16,2.78c0.99,0,1.68-0.46,1.9-1.29h1.19c-0.21,1.35-1.31,2.35-3.08,2.35c-2.06,0-3.38-1.5-3.38-3.84	c0-2.3,1.31-3.79,3.38-3.79c1.79,0,2.88,1.07,3.09,2.39H51.99z M54.41,23.32c0-2.37,1.3-3.81,3.4-3.81s3.4,1.44,3.4,3.81	c0,2.37-1.3,3.81-3.4,3.81S54.41,25.68,54.41,23.32z M59.98,23.32c0-1.75-0.79-2.75-2.18-2.75s-2.18,1-2.18,2.75	c0,1.74,0.79,2.75,2.18,2.75S59.98,25.06,59.98,23.32z M62.91,19.63h1.12v1.16h0.11c0.33-0.82,1.07-1.29,2.06-1.29	c1,0,1.7,0.53,2.04,1.29h0.11c0.4-0.78,1.24-1.29,2.26-1.29c1.5,0,2.34,0.86,2.34,2.41V27h-1.18v-4.82c0-1.09-0.51-1.62-1.55-1.62	c-1.03,0-1.71,0.77-1.71,1.7V27h-1.18v-5c0-0.88-0.61-1.44-1.54-1.44c-0.96,0-1.71,0.83-1.71,1.87V27h-1.18V19.63z M81.63,23.32	c0,2.3-1.22,3.81-3.1,3.81c-1.05,0-1.9-0.46-2.3-1.24h-0.11v3.57h-1.18v-9.83h1.12v1.23h0.11c0.47-0.85,1.35-1.36,2.36-1.36	C80.42,19.5,81.63,21,81.63,23.32z M80.42,23.32c0-1.72-0.81-2.75-2.15-2.75c-1.33,0-2.17,1.06-2.17,2.75	c0,1.69,0.84,2.75,2.17,2.75C79.61,26.07,80.42,25.04,80.42,23.32z M83.34,19.63h1.12v1.09h0.11c0.22-0.72,1.07-1.22,2.04-1.22	c0.19,0,0.44,0.01,0.59,0.03v1.18c-0.1-0.03-0.52-0.07-0.75-0.07c-1.12,0-1.93,0.75-1.93,1.79V27h-1.18V19.63z M88.09,24.94	c0-1.32,0.97-2.08,2.69-2.18l2.13-0.13v-0.67c0-0.91-0.57-1.41-1.67-1.41c-0.88,0-1.5,0.33-1.66,0.92h-1.19	c0.16-1.18,1.32-1.96,2.89-1.96c1.8,0,2.8,0.92,2.8,2.45V27h-1.12v-1.09h-0.11c-0.48,0.79-1.29,1.22-2.27,1.22	C89.15,27.13,88.09,26.28,88.09,24.94z M92.91,24.25v-0.68l-1.98,0.13c-1.12,0.08-1.61,0.46-1.61,1.2c0,0.75,0.64,1.19,1.49,1.19	C92.01,26.1,92.91,25.3,92.91,24.25z M96.12,19.63h1.12v1.09h0.11c0.22-0.72,1.07-1.22,2.04-1.22c0.19,0,0.44,0.01,0.59,0.03v1.18	c-0.1-0.03-0.52-0.07-0.75-0.07c-1.12,0-1.93,0.75-1.93,1.79V27h-1.18V19.63z"/></svg>