<svg xmlns="http://www.w3.org/2000/svg" width="121" height="42" viewBox="0 0 121 42"><path d="M5.11 15.03c3.55 0 5.65 2.22 5.65 5.98 0 3.78-2.09 5.99-5.65 5.99H1V15.03h4.11zM2.49 25.67h2.52c2.67 0 4.22-1.71 4.22-4.63 0-2.93-1.57-4.66-4.22-4.66H2.49v9.29zm9.93-3.13c0-2.88 1.58-4.63 4.12-4.63 2.55 0 4.13 1.75 4.13 4.63 0 2.87-1.58 4.63-4.13 4.63-2.54 0-4.12-1.76-4.12-4.63zm6.78 0c0-2.12-.96-3.35-2.65-3.35s-2.65 1.22-2.65 3.35c0 2.12.95 3.35 2.65 3.35s2.65-1.24 2.65-3.35zm-3.6-6.01l2.09-2.81h1.83l-2.31 2.81H15.6zm7.03 1.53h1.36v1.41h.13c.45-.99 1.32-1.57 2.69-1.57 2.01 0 3.13 1.19 3.13 3.31V27h-1.43v-5.45c0-1.61-.68-2.37-2.11-2.37s-2.35.95-2.35 2.52V27h-1.43v-8.94zm9.18 4.48c0-2.81 1.49-4.63 3.76-4.63 1.25 0 2.3.59 2.81 1.57h.12v-4.96h1.43v12.5h-1.36v-1.43h-.13c-.56 1-1.63 1.59-2.86 1.59-2.3-.01-3.77-1.83-3.77-4.64zm1.48 0c0 2.09.98 3.35 2.61 3.35s2.63-1.28 2.63-3.35c0-2.05-1.01-3.35-2.63-3.35-1.63 0-2.61 1.26-2.61 3.35zm16.47 2.16c-.43 1.54-1.81 2.47-3.77 2.47-2.48 0-4.03-1.79-4.03-4.62 0-2.81 1.58-4.64 4.03-4.64 2.42 0 3.88 1.72 3.88 4.5v.55h-6.43v.07c.08 1.77 1.06 2.89 2.58 2.89 1.15 0 1.93-.42 2.31-1.21h1.43zm-6.31-2.9h4.93c-.03-1.59-.98-2.63-2.4-2.63-1.43 0-2.42 1.04-2.53 2.63zm18.85-1c-.23-.89-1.02-1.61-2.31-1.61-1.61 0-2.62 1.29-2.62 3.31 0 2.07 1.03 3.38 2.62 3.38 1.2 0 2.04-.56 2.31-1.57h1.44c-.26 1.64-1.59 2.86-3.74 2.86-2.51 0-4.11-1.82-4.11-4.67 0-2.79 1.59-4.6 4.1-4.6 2.17 0 3.5 1.3 3.75 2.9H62.3zm2.82 1.74c0-2.88 1.58-4.63 4.12-4.63 2.55 0 4.13 1.75 4.13 4.63 0 2.87-1.58 4.63-4.13 4.63s-4.12-1.76-4.12-4.63zm6.77 0c0-2.12-.96-3.35-2.65-3.35s-2.65 1.22-2.65 3.35c0 2.12.95 3.35 2.65 3.35s2.65-1.24 2.65-3.35zm3.43-4.48h1.36v1.41h.13c.41-1 1.3-1.57 2.5-1.57 1.21 0 2.06.64 2.47 1.57h.13c.48-.95 1.5-1.57 2.74-1.57 1.83 0 2.85 1.05 2.85 2.92V27h-1.43v-5.85c0-1.32-.62-1.97-1.88-1.97-1.25 0-2.08.93-2.08 2.07V27h-1.43v-6.08c0-1.06-.74-1.74-1.87-1.74-1.17 0-2.08 1.01-2.08 2.27v5.54H75.3v-8.93zm22.62 4.48c0 2.8-1.49 4.63-3.76 4.63-1.28 0-2.31-.56-2.8-1.5h-.13V30h-1.43V18.06h1.36v1.49h.13c.57-1.03 1.64-1.65 2.86-1.65 2.29.01 3.77 1.82 3.77 4.64zm-1.48 0c0-2.09-.98-3.35-2.62-3.35-1.62 0-2.64 1.29-2.64 3.35 0 2.05 1.02 3.35 2.63 3.35 1.66-.01 2.63-1.26 2.63-3.35zm3.43-4.48h1.36v1.33h.13c.27-.87 1.29-1.49 2.48-1.49.23 0 .53.02.71.04v1.43a6.24 6.24 0 0 0-.91-.08c-1.36 0-2.35.91-2.35 2.17V27h-1.43v-8.94zm5.66 6.44c0-1.6 1.18-2.52 3.26-2.65l2.58-.16v-.81c0-1.1-.69-1.71-2.03-1.71-1.07 0-1.82.41-2.02 1.11h-1.44c.19-1.44 1.6-2.38 3.51-2.38 2.18 0 3.4 1.12 3.4 2.98v6.13h-1.36v-1.32h-.13c-.58.95-1.56 1.48-2.76 1.48-1.72 0-3.01-1.03-3.01-2.67zm5.84-.83v-.82l-2.41.16c-1.36.09-1.96.56-1.96 1.46 0 .91.77 1.44 1.81 1.44 1.47.01 2.56-.96 2.56-2.24zm3.78-5.61h1.36v1.33h.13c.27-.87 1.29-1.49 2.48-1.49.23 0 .53.02.71.04v1.43a6.24 6.24 0 0 0-.91-.08c-1.36 0-2.35.91-2.35 2.17V27h-1.43v-8.94z" fill="#fff"/></svg>